<?xml version="1.0" encoding="UTF-8"?>
<svg width="1063px" height="641px" viewBox="0 0 1063 641" version="1.1" xmlns="http://www.w3.org/2000/svg" xmlns:xlink="http://www.w3.org/1999/xlink">
    <!-- Generator: Sketch 47.1 (45422) - http://www.bohemiancoding.com/sketch -->
    <title>LMC_logo</title>
    <desc>Created with Sketch.</desc>
    <defs>
        <linearGradient x1="100%" y1="100%" x2="0%" y2="0%" id="linearGradient-1">
            <stop stop-color="#FEC825" offset="0%"></stop>
            <stop stop-color="#E04292" offset="100%"></stop>
        </linearGradient>
        <rect id="path-2" x="0" y="0" width="1063" height="641"></rect>
        <polygon id="path-4" points="215.933192 0.06875 0.57225 0.06875 0.57225 223.308542 215.933192 223.308542 215.933192 0.06875"></polygon>
        <polygon id="path-6" points="0 0.541557895 0 116.966154 68.9217882 116.966154 68.9217882 0.541557895"></polygon>
    </defs>
    <g id="Page-1" stroke="none" stroke-width="1" fill="none" fill-rule="evenodd">
        <g id="LMC_logo">
            <g id="Icon">
                <mask id="mask-3" fill="white">
                    <use xlink:href="#path-2"></use>
                </mask>
                <use id="Mask" fill="url(#linearGradient-1)" xlink:href="#path-2"></use>
            </g>
            <g id="logo" transform="translate(107.000000, 107.000000)">
                <g id="Group-3" transform="translate(282.000000, 0.000000)">
                    <mask id="mask-5" fill="white">
                        <use xlink:href="#path-4"></use>
                    </mask>
                    <g id="Clip-2"></g>
                    <path d="M196.49975,203.993958 L132.397269,203.993958 L87.4410577,203.993958 L20.0056923,203.993958 L20.0056923,166.448125 L81.7919231,166.448125 L89.6965192,151.521042 L104.627423,187.662708 L122.193192,187.662708 L147.007462,142.214792 L156.593173,164.371042 C159.026808,169.998125 165.587769,172.612708 171.249481,170.185625 C176.917481,167.764792 179.533481,161.243958 177.099846,155.618958 L158.429404,112.437708 C156.744096,108.529375 152.960538,105.923125 148.686481,105.733542 C144.391462,105.568958 140.402481,107.791875 138.367115,111.518958 L111.226115,161.237708 L101.531404,135.735625 C100.028462,131.785625 96.3958269,129.018958 92.1657885,128.612708 C87.9001154,128.210625 83.8314808,130.233542 81.6011731,133.821042 L72.4556538,150.439792 L20.0056923,150.439792 L20.0056923,87.3272917 L109.547096,19.3835417 L152.377808,52.8502083 L152.377808,19.5564583 L171.830115,19.5564583 L171.830115,68.0502083 L196.49975,87.3272917 L196.49975,203.993958 Z M208.510712,72.141875 L191.791788,59.0772917 L191.791788,19.5585417 C191.791788,8.90645833 183.075981,0.241875 172.35625,0.241875 L152.377808,0.241875 C142.525885,0.241875 136.587481,3.22520833 134.220923,9.360625 L132.818596,12.9960417 L121.558058,4.20020833 C118.149712,1.53354167 113.881942,0.066875 109.547096,0.066875 C105.247885,0.066875 101.168769,1.43770833 97.7520385,4.03145833 L8.21273077,71.973125 C3.42930769,75.604375 0.57225,81.3439583 0.57225,87.3272917 L0.57225,203.993958 C0.57225,214.643958 9.29015385,223.308542 20.0077885,223.308542 L196.49975,223.308542 C207.215288,223.308542 215.933192,214.643958 215.933192,203.993958 L215.933192,87.3272917 C215.933192,81.3627083 213.229154,75.8272917 208.510712,72.141875 L208.510712,72.141875 Z" id="Fill-1" fill="#FFFFFF" mask="url(#mask-5)"></path>
                </g>
                <path d="M424.489755,68.5398424 L424.489755,68.537736 C424.473142,68.4387346 424.452376,68.3376267 424.429533,68.2386253 C424.284169,67.6067011 424.099349,66.9495 423.846,66.1954038 L423.733862,65.885761 C423.031962,63.9078383 422.07879,62.1258122 420.901342,60.5965557 C418.862094,57.9403678 416.177014,55.8550181 413.174211,54.5785313 C412.922939,54.4689978 412.665437,54.3763156 412.405859,54.2857398 L411.936541,54.1130138 C411.681116,54.0140124 411.423614,53.9213302 411.193108,53.8497121 C408.040787,52.8723361 404.664191,52.7354192 401.422575,53.4537063 C399.551534,53.8686698 397.697105,54.6206596 395.848906,55.722314 L395.591405,55.8739758 C394.95388,56.2720881 394.397344,56.653349 393.90103,57.0367163 C393.813811,57.1020151 393.726593,57.1736332 393.653911,57.238932 C392.711122,57.9846025 391.824402,58.8145296 390.999981,59.7202876 C390.177636,58.816636 389.29507,57.9888154 388.358511,57.2473577 C388.273369,57.1736332 388.18615,57.1020151 388.109315,57.0451419 C387.602618,56.653349 387.044005,56.2720881 386.371178,55.8508053 L386.088757,55.6843986 C384.30078,54.6206596 382.446352,53.8686698 380.577387,53.4537063 C377.335771,52.7354192 373.957098,52.8744425 370.838003,53.83918 C370.576348,53.9213302 370.318846,54.0140124 370.063421,54.1130138 L369.594103,54.2857398 C369.332448,54.3763156 369.074946,54.4689978 368.861054,54.5637864 C365.822947,55.8550181 363.137868,57.9403678 361.09862,60.5965557 C359.919095,62.1258122 358.968,63.9078383 358.249486,65.9278892 L358.141502,66.2333193 C357.900613,66.9537128 357.713717,67.6109139 357.568353,68.2365189 C357.54551,68.3397331 357.524743,68.4450538 357.510207,68.537736 C356.212315,74.5662925 357.425065,81.2499438 360.755976,86.416977 C364.024588,91.4871152 368.289981,95.4092578 372.41624,99.2050156 C376.247618,102.724833 387.818587,115.100015 388.422886,115.790918 C389.047951,116.55344 389.98451,116.983149 390.960525,117 L391.012441,117 C391.971843,117 392.900095,116.568185 393.53762,115.83726 C394.179298,115.100015 405.75442,102.724833 409.583722,99.2050156 C413.709981,95.4092578 417.975374,91.4871152 421.246062,86.4148706 C424.574897,81.2499438 425.787647,74.5662925 424.489755,68.5398424" id="Fill-4" fill="#FFFFFF"></path>
                <g id="Group-8" transform="translate(0.000000, 267.000000)">
                    <mask id="mask-7" fill="white">
                        <use xlink:href="#path-6"></use>
                    </mask>
                    <g id="Clip-7"></g>
                    <polygon id="Fill-6" fill="#FFFFFF" mask="url(#mask-7)" points="-0.000417647059 116.966154 -0.000417647059 0.541557895 19.1988176 0.541557895 19.1988176 100.640751 68.9217882 100.640751 68.9217882 116.966154"></polygon>
                </g>
                <path d="M90.8776909,341.33756 C90.8776909,362.060249 98.6246307,372.418428 114.122781,372.418428 C129.454376,372.418428 137.122309,362.060249 137.122309,341.33756 C137.122309,320.834271 129.403128,310.581572 113.960497,310.581572 C105.854823,310.581572 99.9805587,313.23335 96.3398386,318.532688 C92.6991186,323.838354 90.8776909,331.437165 90.8776909,341.33756 M157,341.33756 C157,355.999342 153.19486,367.441861 145.582446,375.663007 C137.970031,383.890482 127.374575,388 113.793942,388 C105.306046,388 97.8046679,386.107681 91.2876723,382.320933 C84.7706766,378.534185 79.7590813,373.097723 76.257157,366.007327 C72.7509621,358.921151 71,350.697895 71,341.33756 C71,326.787587 74.7773805,315.425234 82.3342768,307.254718 C89.8911732,299.086312 100.542148,295 114.2872,295 C127.430093,295 137.833371,299.181245 145.501304,307.539515 C153.167101,315.897786 157,327.165207 157,341.33756" id="Fill-9" fill="#FFFFFF"></path>
                <path d="M208.91938,373.15624 C216.744759,373.15624 222.409101,370.995364 225.914502,366.669419 C229.419903,362.347666 231.335938,355.209019 231.660512,345.253477 L231.660512,341.910511 C231.660512,331.032772 229.865931,323.106065 226.280957,318.128295 C222.693889,313.15262 216.797109,310.664782 208.592712,310.664782 C201.799688,310.664782 196.623254,313.328676 193.065502,318.658558 C189.505656,323.990537 187.725734,331.793585 187.725734,342.073992 C187.725734,362.796189 194.788886,373.15624 208.91938,373.15624 L208.91938,373.15624 Z M230.764269,386.211623 L231.335938,375.03417 L230.600935,375.03417 C224.676933,384.006732 215.737532,388.494062 203.782732,388.494062 C192.535713,388.494062 183.759647,384.402858 177.456626,376.216259 C171.151511,368.031756 168,356.596507 168,341.910511 C168,327.387996 171.191297,315.940171 177.578079,307.562845 C183.962767,299.187615 192.805843,295 204.111494,295 C215.848515,295 224.921934,299.432836 231.335938,308.298507 L232.150515,308.298507 L234.104242,296.630613 L250,296.630613 L250,387.678755 C250,413.894316 235.817156,427 207.451467,427 C194.573202,427 183.541868,425.153509 174.35956,421.454239 L174.35956,405.055891 C184.356444,409.733947 195.551112,412.07088 207.941469,412.07088 C215.059067,412.07088 220.643837,410.073484 224.691591,406.076596 C228.739345,402.077612 230.764269,396.351604 230.764269,388.902763 L230.764269,386.211623 Z" id="Fill-11" fill="#FFFFFF"></path>
                <path d="M360.475487,384 L341.362413,384 L341.362413,330.09535 C341.362413,323.402987 340.067717,318.407859 337.476221,315.116129 C334.884725,311.822344 330.836433,310.174424 325.32924,310.174424 C317.986316,310.174424 312.601225,312.50658 309.171861,317.170892 C305.744601,321.833149 304.030972,329.593988 304.030972,340.447246 L304.030972,384 L285,384 L285,296.580113 L299.902683,296.580113 L302.574176,308.04158 L303.544672,308.04158 C306.026698,303.87863 309.630793,300.664981 314.354853,298.398578 C319.078913,296.132174 324.276642,295 329.945935,295 C343.711811,295 352.835731,299.584176 357.317693,308.752528 L358.612389,308.752528 C361.256515,304.433416 364.982712,301.059496 369.788874,298.634876 C374.592932,296.210255 380.098019,295 386.308347,295 C396.996428,295 404.785653,297.636261 409.669708,302.904673 C414.557973,308.17514 417,316.211317 417,327.011151 L417,384 L397.969028,384 L397.969028,330.09535 C397.969028,323.402987 396.659596,318.407859 394.042838,315.116129 C391.423974,311.822344 387.360945,310.174424 381.853753,310.174424 C374.458199,310.174424 369.04574,312.428499 365.616376,316.932539 C362.187012,321.438634 360.475487,328.354966 360.475487,337.681535 L360.475487,384 Z" id="Fill-13" fill="#FFFFFF"></path>
                <path d="M421,295 L441.751284,295 L459.98873,345.222576 C462.744892,352.379382 464.580226,359.107238 465.501054,365.408225 L466.150058,365.408225 C466.634704,362.470124 467.528139,358.907338 468.824041,354.715703 C470.119942,350.521986 476.980846,330.617446 489.410967,295 L510,295 L471.660274,395.363944 C464.689798,413.787981 453.070933,423 436.805786,423 C432.589365,423 428.484622,422.54398 424.485238,421.638187 L424.485238,406.739454 C427.348865,407.380797 430.619173,407.701469 434.291948,407.701469 C443.479153,407.701469 449.93759,402.441623 453.665151,391.919848 L456.990246,383.590718 L421,295 Z" id="Fill-15" fill="#FFFFFF"></path>
                <path d="M590.643239,283.505708 C579.631318,283.505708 570.970608,287.42338 564.665277,295.258726 C558.357862,303.094071 555.20207,313.907434 555.20207,327.700906 C555.20207,342.141046 558.236967,353.06114 564.30259,360.465374 C570.368214,367.873794 579.14982,371.575911 590.643239,371.575911 C595.614549,371.575911 600.423275,371.082016 605.075671,370.085856 C609.728067,369.093881 614.565975,367.819382 619.589395,366.262358 L619.589395,382.765973 C610.397161,386.256719 599.973043,388 588.319125,388 C571.158204,388 557.982669,382.780622 548.788351,372.341866 C539.594033,361.905203 535,346.969075 535,327.539763 C535,315.303314 537.228231,304.596683 541.69303,295.417776 C546.153661,286.243056 552.609068,279.213428 561.057169,274.326801 C569.501101,269.44436 579.418708,267 590.803738,267 C602.77657,267 613.842686,269.523885 624,274.569563 L617.102698,290.589747 C613.146494,288.712529 608.965174,287.06133 604.554569,285.638244 C600.146049,284.219343 595.508244,283.505708 590.643239,283.505708" id="Fill-17" fill="#FFFFFF"></path>
                <path d="M661.582772,373.393068 C668.402844,373.393068 673.880103,371.458556 678.012472,367.589534 C682.142762,363.72262 684.211025,358.298816 684.211025,351.31812 L684.211025,343.529444 L672.855326,344.014654 C664.006485,344.339534 657.568887,345.839466 653.544608,348.518669 C649.518251,351.197872 647.50819,355.296842 647.50819,360.81347 C647.50819,364.819617 648.680552,367.914413 651.027355,370.104187 C653.372079,372.296071 656.891245,373.393068 661.582772,373.393068 L661.582772,373.393068 Z M689.567723,386.375601 L685.807433,373.876168 L685.171364,373.876168 C680.903883,379.344275 676.613536,383.063515 672.296167,385.038109 C667.976719,387.012703 662.432943,388 655.662759,388 C646.976054,388 640.19132,385.618252 635.314792,380.856864 C630.436185,376.097586 628,369.361605 628,360.653139 C628,351.398285 631.381974,344.421808 638.154236,339.715271 C644.920263,335.008733 655.236634,332.43923 669.097115,332.00676 L684.371082,331.517331 L684.371082,326.730628 C684.371082,320.996711 683.051135,316.709985 680.41332,313.868342 C677.773426,311.028809 673.680552,309.606932 668.136776,309.606932 C663.607383,309.606932 659.262992,310.284117 655.105679,311.636376 C650.946288,312.988635 646.949031,314.585609 643.109753,316.423079 L637.031762,302.790786 C641.831379,300.246597 647.079987,298.314196 652.787977,296.987252 C658.489731,295.662417 663.873451,295 668.937058,295 C680.184668,295 688.6739,297.491448 694.404756,302.465906 C700.133533,307.442473 703,315.260684 703,325.920538 L703,386.375601 L689.567723,386.375601 Z" id="Fill-19" fill="#FFFFFF"></path>
                <path d="M761.682873,295 C765.451133,295 768.556842,295.265064 771,295.791084 L769.167632,313.102461 C766.511215,312.467539 763.751275,312.153161 760.88367,312.153161 C753.396841,312.153161 747.332426,314.575726 742.684215,319.424967 C738.038074,324.272152 735.717074,330.57 735.717074,338.314402 L735.717074,384 L717,384 L717,296.582167 L731.654806,296.582167 L734.12281,311.994944 L735.079368,311.994944 C738.000805,306.775846 741.808405,302.641663 746.510448,299.584176 C751.20628,296.528744 756.266516,295 761.682873,295" id="Fill-21" fill="#FFFFFF"></path>
                <path d="M811.315189,309.444492 C805.366808,309.444492 800.598991,311.368456 797.013808,315.207944 C793.428625,319.049542 791.291184,324.650553 790.599416,332.00676 L830.595645,332.00676 C830.490016,324.593594 828.735741,318.982034 825.336962,315.165752 C821.938184,311.353688 817.263569,309.444492 811.315189,309.444492 M814.740892,388 C801.038078,388 790.32188,383.930564 782.594371,375.787474 C774.86479,367.644383 771,356.431812 771,342.14976 C771,327.490087 774.587254,315.967403 781.757621,307.579598 C788.925916,299.196012 798.778439,295 811.315189,295 C822.94684,295 832.136591,298.598993 838.88444,305.796978 C845.626075,312.990745 849,322.88903 849,335.498163 L849,345.801493 L790.280457,345.801493 C790.547637,354.512068 792.856984,361.207967 797.212639,365.887079 C801.568295,370.568301 807.70308,372.907858 815.616994,372.907858 C820.821827,372.907858 825.67042,372.405771 830.15863,371.405816 C834.64684,370.403752 839.466437,368.74138 844.617419,366.414481 L844.617419,381.913778 C840.050505,384.130977 835.42974,385.700526 830.755125,386.620316 C826.08051,387.540105 820.745194,388 814.740892,388" id="Fill-23" fill="#FFFFFF"></path>
            </g>
        </g>
    </g>
</svg>